<svg width="90" height="90" viewBox="0 0 90 90" fill="none" xmlns="http://www.w3.org/2000/svg">
<path d="M47.4375 68.3958L64.1146 32.5938L36.8594 51.7708L47.4375 68.3958Z" fill="#27AAE1"/>
<path d="M18.9688 42.7969C23.3177 44.3542 27.8021 45.9688 32.2083 47.5938C32.4531 47.6823 32.5365 47.6719 32.5417 47.6719C32.5417 47.6719 32.6302 47.6615 32.8542 47.5C40.1406 42.3542 47.5417 37.1563 54.7969 32.0677L18.9688 42.7969Z" fill="#27AAE1"/>
<path d="M34.4795 62.7969L36.167 61.3594L34.8545 59.3021L34.4795 62.7969Z" fill="#27AAE1"/>
<mask id="mask0_2058_90" style="mask-type:luminance" maskUnits="userSpaceOnUse" x="0" y="0" width="90" height="90">
<path d="M0.254883 0.9375H89.1976V89.6667H0.254883V0.9375Z" fill="white"/>
</mask>
<g mask="url(#mask0_2058_90)">
<path d="M44.7441 0.9375C44.7077 0.9375 44.666 0.9375 44.6296 0.9375C33.0723 0.9375 21.6921 5.70833 13.3796 14.0365C4.89518 22.5417 0.25976 33.8802 0.337886 45.9583C0.488928 70.1875 20.4681 89.8802 44.8848 89.8802C44.9056 89.8802 44.9212 89.8802 44.9421 89.8802C56.7181 89.8646 67.8171 85.2292 76.1921 76.8281C84.5879 68.4063 89.1921 57.2656 89.1556 45.4583C89.0827 20.974 69.1608 1.00521 44.7441 0.9375ZM73.4681 25.9167C69.8379 33.7656 66.1243 41.7292 62.5306 49.4271C61.1712 52.3385 59.765 55.349 58.3848 58.3073C57.4681 60.276 56.541 62.2813 55.64 64.2188C53.9993 67.7604 52.3014 71.4167 50.6087 75.0104C50.4473 75.3594 49.5514 77.0833 47.9577 77.1563C47.9212 77.1563 47.8848 77.1563 47.8483 77.1563C46.3431 77.1563 45.3014 75.6823 45.1035 75.375C43.5775 73.0417 42.0618 70.651 40.5931 68.3385C40.1712 67.6719 39.7389 66.9896 39.3066 66.3073C39.2077 66.3906 39.0566 66.5208 38.8691 66.6771C34.7337 70.1823 34.0879 70.5677 33.5775 70.8333C32.3691 71.4531 30.7233 72.2969 29.6556 71.625C29.4264 71.4792 28.8483 71.026 28.6764 67.5885C28.64 66.7708 28.5723 64.8073 28.9941 60.6615C29.0671 59.9219 29.1921 58.8646 29.4421 56.75C29.5931 55.4635 29.7441 54.1927 29.9004 52.9323C25.1816 51.2656 20.4004 49.5365 15.7806 47.8646C13.6608 47.099 11.4681 46.3073 9.31705 45.5313C8.80143 45.349 8.25976 45.1354 7.79101 44.7396C6.95768 44.0417 6.64518 42.9948 6.95768 41.9427C7.30143 40.7708 8.49934 39.849 9.49934 39.5417C23.7285 35.224 37.7077 31.0313 49.5046 27.5C56.916 25.2813 63.5306 23.3281 69.7285 21.5313C70.1921 21.3958 70.765 21.3385 71.3014 21.3698C72.515 21.4479 73.1139 21.9844 73.4004 22.4271C74.0775 23.4688 73.9108 24.9635 73.4681 25.9167Z" fill="#27AAE1"/>
</g>
<path d="M71.3025 21.3698C70.766 21.3385 70.1931 21.3958 69.7296 21.5312C63.5316 23.3281 56.9171 25.2812 49.5056 27.5C37.7087 31.0312 23.7295 35.2239 9.50559 39.5417C8.50038 39.8489 7.30246 40.7708 6.95871 41.9427C6.64621 42.9948 6.95871 44.0417 7.79205 44.7396C8.26079 45.1354 8.80246 45.3489 9.31809 45.5364C11.4691 46.3073 13.6618 47.0989 15.7816 47.8646C20.4066 49.5364 25.1827 51.2656 29.9014 52.9323C29.7452 54.1927 29.5941 55.4635 29.4431 56.75C29.1931 58.8646 29.0681 59.9219 28.9952 60.6614C28.5733 64.8073 28.641 66.7708 28.6775 67.5885C28.8493 71.026 29.4275 71.4792 29.6618 71.625C30.7243 72.2969 32.3702 71.4531 33.5785 70.8333C34.0889 70.5677 34.7348 70.1823 38.8702 66.6771C39.0577 66.5208 39.2087 66.3906 39.3077 66.3073C39.74 66.9896 40.1723 67.6719 40.5993 68.3385C42.0629 70.651 43.5837 73.0417 45.1046 75.3802C45.3025 75.6823 46.3441 77.1614 47.8493 77.1614C47.8858 77.1614 47.9223 77.1562 47.9587 77.1562C49.5525 77.0833 50.4483 75.3594 50.6098 75.0156C52.3025 71.4219 54.0004 67.7604 55.641 64.2187C56.542 62.2812 57.4691 60.276 58.391 58.3073C59.766 55.3489 61.1723 52.3385 62.5316 49.4271C66.1254 41.7292 69.8389 33.7656 73.4691 25.9219C73.9118 24.9687 74.0785 23.4687 73.4014 22.4271C73.115 21.9844 72.516 21.4479 71.3025 21.3698ZM32.8545 47.5C32.6306 47.6614 32.542 47.6719 32.542 47.6719C32.5368 47.6719 32.4535 47.6823 32.2087 47.5937C27.8025 45.9687 23.3181 44.3542 18.9691 42.7969L54.7973 32.0677C47.542 37.1562 40.141 42.3542 32.8545 47.5ZM34.4795 62.7969L34.8545 59.3021L36.167 61.3594L34.4795 62.7969ZM47.4379 68.3958L36.8598 51.7708L64.115 32.5937L47.4379 68.3958Z" fill="#F1F2F2"/>
</svg>
