<svg width="204" height="154" viewBox="0 0 204 154" fill="none" xmlns="http://www.w3.org/2000/svg">
<mask id="mask0_2059_91" style="mask-type:luminance" maskUnits="userSpaceOnUse" x="0" y="1" width="178" height="153">
<path d="M0.666504 1.33337H178V153.333H0.666504V1.33337Z" fill="white"/>
</mask>
<g mask="url(#mask0_2059_91)">
<mask id="mask1_2059_91" style="mask-type:luminance" maskUnits="userSpaceOnUse" x="-2" y="-52" width="212" height="223">
<path d="M69.7863 -52L209.307 10.5677L137.75 170.146L-1.771 107.583L69.7863 -52Z" fill="white"/>
</mask>
<g mask="url(#mask1_2059_91)">
<mask id="mask2_2059_91" style="mask-type:luminance" maskUnits="userSpaceOnUse" x="-2" y="-52" width="212" height="223">
<path d="M69.7863 -52L209.307 10.5677L137.75 170.146L-1.771 107.583L69.7863 -52Z" fill="white"/>
</mask>
<g mask="url(#mask2_2059_91)">
<path d="M85.8072 147.109C85.7812 147.099 85.7812 147.099 85.8072 147.109C84.401 146.448 83.0416 145.75 81.7187 144.974C80.6301 144.338 79.552 143.677 78.4843 142.99C77.8593 142.588 77.677 141.729 78.0989 141.115C78.4999 140.484 79.3853 140.312 79.9739 140.729C80.9947 141.396 82.0208 142.031 83.0676 142.625C84.3333 143.338 85.6145 144.005 86.9218 144.62C87.6093 144.958 87.9114 145.75 87.5728 146.437C87.2708 147.109 86.4791 147.411 85.8072 147.109ZM93.4322 150.021C92.8124 149.74 92.4895 149.057 92.6822 148.37C92.8853 147.651 93.6614 147.255 94.3749 147.453C96.9583 148.224 99.5676 148.797 102.13 149.141C102.896 149.245 103.396 149.917 103.297 150.677C103.203 151.411 102.521 151.943 101.76 151.838C99.0468 151.49 96.276 150.875 93.5572 150.078C93.5312 150.062 93.4843 150.042 93.4322 150.021ZM72.1822 138.13C72.0572 138.073 71.9426 137.995 71.8541 137.922C69.7656 136.12 67.7812 134.156 65.9114 132.062C65.4114 131.51 65.4478 130.63 66.026 130.141C66.5781 129.641 67.4583 129.677 67.9426 130.255C69.7395 132.255 71.6353 134.151 73.6353 135.885C74.1926 136.375 74.2551 137.234 73.7656 137.792C73.3801 138.25 72.7291 138.375 72.1822 138.13ZM109.578 152.12C109.13 151.922 108.797 151.469 108.76 150.948C108.713 150.182 109.297 149.547 110.052 149.526C112.745 149.391 115.365 149.01 117.849 148.333C118.562 148.146 119.323 148.573 119.51 149.286C119.698 150 119.271 150.76 118.557 150.948C115.891 151.635 113.088 152.083 110.219 152.229C109.974 152.24 109.75 152.198 109.578 152.12ZM2.16659 103.687C2.01555 103.62 1.87492 103.526 1.77596 103.422C1.22909 102.906 1.22909 102.042 1.74472 101.495C3.62492 99.5624 5.63013 97.6197 7.66138 95.7552C8.21347 95.2552 9.06763 95.2812 9.59367 95.8437C10.0937 96.3958 10.0676 97.2499 9.50513 97.776C7.4843 99.6197 5.53638 101.495 3.68742 103.411C3.29159 103.833 2.66138 103.906 2.16659 103.687ZM61.3124 125.995C61.0885 125.896 60.8853 125.745 60.7447 125.531C59.1614 123.271 57.7187 120.891 56.3697 118.432C56.0103 117.766 56.2551 116.948 56.927 116.594C57.5937 116.234 58.4114 116.479 58.7656 117.151C60.0364 119.51 61.4531 121.818 62.9583 123.99C63.401 124.604 63.2291 125.453 62.6145 125.891C62.2343 126.141 61.7343 126.187 61.3124 125.995ZM125.234 147.911C124.963 147.786 124.75 147.604 124.604 147.328C124.245 146.661 124.49 145.844 125.161 145.484C127.437 144.271 129.557 142.74 131.531 140.937C132.083 140.437 132.937 140.463 133.463 141.026C133.963 141.578 133.937 142.432 133.375 142.958C131.245 144.901 128.948 146.557 126.469 147.896C126.062 148.073 125.609 148.078 125.234 147.911ZM53.5676 111.62C53.2447 111.474 53.0051 111.219 52.8541 110.885C51.8176 108.328 50.927 105.656 50.177 102.995C49.9687 102.271 50.3958 101.505 51.1353 101.328C51.8593 101.115 52.6197 101.547 52.7968 102.286C53.526 104.854 54.3801 107.417 55.3645 109.885C55.6458 110.583 55.3176 111.391 54.5937 111.661C54.2708 111.786 53.8906 111.766 53.5676 111.62ZM14.2395 92.6718C14.0416 92.5833 13.8905 92.4531 13.7239 92.2916C13.2499 91.6874 13.3333 90.8333 13.927 90.3801C16.0468 88.6406 18.2603 86.9739 20.4999 85.3801C21.1145 84.9426 21.9739 85.0885 22.3905 85.6926C22.8333 86.3072 22.6822 87.1666 22.078 87.5833C19.8905 89.1406 17.7395 90.802 15.6353 92.4895C15.2499 92.8229 14.6874 92.8749 14.2395 92.6718ZM137.182 136.99C137.109 136.953 137.036 136.922 136.974 136.865C136.354 136.437 136.198 135.588 136.599 134.963C137.818 133.182 138.896 131.245 139.807 129.203C139.99 128.807 140.156 128.432 140.307 128.026C140.594 127.318 141.401 126.99 142.094 127.302C142.807 127.651 143.13 128.396 142.818 129.088C142.63 129.51 142.474 129.922 142.286 130.344C141.302 132.531 140.135 134.609 138.849 136.542C138.495 137.068 137.755 137.245 137.182 136.99ZM49.1822 95.8854C48.7864 95.7083 48.4791 95.3281 48.3958 94.8437C47.9531 92.1041 47.651 89.3124 47.5364 86.5729C47.4895 85.8072 48.0728 85.1718 48.8281 85.151C49.5833 85.1301 50.2291 85.6926 50.2499 86.4479C50.3749 89.0989 50.6458 91.7604 51.0989 94.4114C51.2135 95.151 50.7187 95.8593 49.9791 95.9739C49.677 96.0468 49.4322 95.9947 49.1822 95.8854ZM27.5312 83.1562C27.2812 83.0468 27.0885 82.8697 26.9218 82.6458C26.5156 82.0156 26.7135 81.177 27.3437 80.776C29.651 79.2968 32.0416 77.8906 34.453 76.5833C35.1197 76.2239 35.9478 76.4479 36.302 77.1145C36.6614 77.7812 36.4374 78.6093 35.7708 78.9687C33.4218 80.276 31.0676 81.6666 28.8072 83.1041C28.4166 83.3176 27.927 83.3333 27.5312 83.1562ZM48.427 79.5937C47.927 79.3697 47.5728 78.8229 47.6249 78.2499C47.7239 76.8906 47.8541 75.5416 48.026 74.2187C48.0833 73.7656 48.1458 73.2864 48.2239 72.8437C47.1145 73.3281 45.9999 73.8124 44.9062 74.3124L42.9687 75.2343C42.2916 75.5572 41.4843 75.2864 41.1405 74.5937C40.8176 73.9114 41.0885 73.1041 41.7812 72.7604L43.7551 71.8229C45.4426 71.0572 47.1197 70.3124 48.8333 69.6197C49.1041 69.0833 49.6874 68.7812 50.2916 68.901C51.0416 69.026 51.526 69.7499 51.3697 70.4895C51.1249 71.8437 50.901 73.2031 50.7135 74.5572C50.5468 75.8541 50.4218 77.1406 50.3176 78.4374C50.2499 79.1874 49.6041 79.7604 48.8541 79.6979C48.7343 79.7031 48.5728 79.6614 48.427 79.5937ZM143.385 121.963C142.812 121.708 142.495 121.088 142.599 120.448C143.135 117.854 143.391 115.219 143.437 112.583C143.443 111.838 144.078 111.224 144.823 111.229C145.568 111.234 146.177 111.87 146.172 112.615C146.146 115.406 145.838 118.224 145.281 120.995C145.13 121.734 144.406 122.213 143.667 122.062C143.568 122.021 143.484 122.01 143.385 121.963ZM56.9739 69.1197C56.6249 68.9635 56.3697 68.6666 56.2343 68.3072C56.0208 67.5833 56.3906 66.8229 57.1249 66.5885C59.7864 65.7187 62.4478 64.9739 65.0937 64.3333C65.8333 64.1562 66.5572 64.6041 66.7343 65.3385C66.9114 66.0781 66.4687 66.802 65.7291 66.9791C63.1562 67.5885 60.552 68.3333 57.9635 69.177C57.6145 69.2864 57.276 69.2551 56.9739 69.1197ZM143.562 105.708C143.167 105.531 142.859 105.151 142.792 104.703C142.375 102.365 141.745 100.109 140.922 97.9479L140.604 97.1197C140.318 96.427 140.651 95.6197 141.37 95.3437C142.068 95.0572 142.865 95.4166 143.146 96.1093L143.5 96.9843C144.38 99.2916 145.047 101.74 145.49 104.208C145.63 104.963 145.135 105.667 144.385 105.807C144.094 105.854 143.812 105.818 143.562 105.708ZM51.4687 63.5416C50.8489 63.2656 50.5364 62.5572 50.7187 61.8906C51.5364 59.2708 52.5103 56.6301 53.5833 54.0989C53.8958 53.401 54.6926 53.0989 55.3749 53.3749C55.3749 53.3749 55.3749 53.3749 55.3958 53.3854C56.0676 53.6874 56.3958 54.4895 56.0937 55.1614C55.052 57.6197 54.0989 60.151 53.3124 62.6979C53.0885 63.401 52.3333 63.8124 51.6197 63.6093C51.5676 63.5885 51.5208 63.5676 51.4687 63.5416ZM72.8697 65.3124C72.4739 65.1354 72.1666 64.7604 72.0833 64.2708C71.9635 63.5364 72.4843 62.8385 73.2239 62.7239C76.0156 62.302 78.7812 61.9895 81.4843 61.8281C82.2239 61.7708 82.8853 62.3645 82.9166 63.0989C82.9739 63.8385 82.3749 64.4999 81.6458 64.5312C79.0416 64.677 76.3437 64.9583 73.6406 65.3906C73.3541 65.4374 73.0937 65.4114 72.8697 65.3124ZM137.594 90.5729C137.349 90.4635 137.156 90.2864 136.99 90.0624C135.615 87.8645 134 85.7343 132.219 83.7135C131.719 83.1614 131.781 82.2916 132.333 81.7916C132.885 81.2916 133.766 81.3281 134.255 81.9062C136.135 84.0364 137.844 86.2916 139.307 88.6249C139.713 89.2551 139.516 90.0885 138.885 90.4947C138.469 90.7551 138.021 90.7656 137.594 90.5729ZM89.1562 64.3697C88.6562 64.1458 88.3176 63.6406 88.3697 63.0624C88.4114 62.302 89.0312 61.7187 89.7864 61.7604C92.5989 61.8854 95.3697 62.1718 98.0728 62.6041C98.8228 62.7343 99.3124 63.4322 99.1978 64.1562C99.0728 64.9062 98.3749 65.3958 97.6458 65.2812C95.0572 64.8645 92.3749 64.5885 89.6822 64.4583C89.4895 64.4895 89.328 64.4479 89.1562 64.3697ZM57.9166 48.5729C57.8906 48.5572 57.8385 48.5364 57.8176 48.526C57.1406 48.1614 56.9218 47.3176 57.2968 46.6822C58.651 44.2708 60.1249 41.9114 61.6874 39.6249C62.1145 39.0104 62.9843 38.8645 63.5728 39.2812C64.1926 39.7031 64.3489 40.552 63.9218 41.1666C62.4062 43.3541 60.9531 45.6614 59.6718 47.9843C59.3072 48.5989 58.5364 48.8489 57.9166 48.5729ZM126.797 78.4114C126.698 78.3697 126.588 78.2864 126.5 78.2187C124.5 76.5468 122.297 74.9947 120.005 73.5781C119.38 73.177 119.161 72.3281 119.562 71.7031C119.963 71.0781 120.807 70.8593 121.432 71.2604C123.849 72.7291 126.13 74.3801 128.24 76.1354C128.833 76.6093 128.896 77.4739 128.417 78.0676C128.01 78.5104 127.344 78.6614 126.797 78.4114ZM105.26 67.026C104.641 66.7447 104.318 66.0624 104.521 65.4062C104.724 64.6926 105.51 64.2656 106.213 64.4947C108.885 65.2708 111.526 66.2447 114.036 67.3749C114.734 67.6874 115.031 68.4791 114.724 69.177C114.411 69.8697 113.615 70.1718 112.922 69.8593C110.51 68.7812 107.969 67.8489 105.437 67.1041C105.359 67.0676 105.312 67.0468 105.26 67.026ZM67.1926 35.1354C67.0728 35.0833 66.9843 35.0104 66.8697 34.9322C66.3124 34.4426 66.2135 33.5937 66.7135 33.0104C68.4947 30.9114 70.3958 28.8645 72.3645 26.9426C72.901 26.4062 73.7916 26.4166 74.2916 26.9687C74.8281 27.5104 74.802 28.3645 74.2656 28.8958C72.3541 30.7604 70.5103 32.7395 68.7916 34.776C68.3958 35.2604 67.7447 35.3854 67.1926 35.1354ZM78.8906 23.7135C78.6926 23.6249 78.5364 23.4947 78.3749 23.3333C77.8958 22.7291 77.9843 21.8749 78.5728 21.4218C80.7187 19.6979 82.9583 18.0416 85.2603 16.5051C85.8906 16.0989 86.7395 16.2708 87.1562 16.8749C87.5572 17.5051 87.3853 18.3541 86.7812 18.7708C84.5624 20.2551 82.3749 21.8697 80.2864 23.5312C79.8958 23.8645 79.3385 23.9166 78.8906 23.7135ZM92.4895 14.6979C92.2187 14.5729 91.9999 14.3906 91.8333 14.1041C91.4739 13.4374 91.7187 12.6197 92.3905 12.2604C93.4478 11.6926 94.5364 11.1354 95.6353 10.6145C97.0364 9.95306 98.4635 9.31244 99.8905 8.7239C100.583 8.43744 101.391 8.77077 101.677 9.46869C101.963 10.1614 101.63 10.9687 100.937 11.2551C99.5416 11.8281 98.1666 12.4322 96.8176 13.1145C95.7499 13.6197 94.7135 14.1406 93.6614 14.6874C93.2916 14.8489 92.8645 14.8645 92.4895 14.6979ZM107.562 8.40098C107.213 8.24473 106.932 7.94265 106.833 7.56765C106.62 6.84369 107.016 6.09369 107.724 5.84369C110.359 5.02598 113.047 4.29161 115.76 3.71348C116.484 3.56244 117.208 4.00515 117.375 4.76556C117.531 5.49473 117.073 6.24473 116.323 6.38536C113.708 6.94786 111.094 7.65619 108.552 8.45827C108.203 8.56765 107.859 8.5364 107.562 8.40098ZM123.505 4.88536C123.083 4.69786 122.776 4.32286 122.729 3.82286C122.615 3.08327 123.156 2.40098 123.896 2.2864C126.599 1.91661 129.396 1.67702 132.151 1.5364C132.906 1.51556 133.552 2.07286 133.568 2.82806C133.615 3.59369 133.031 4.22911 132.276 4.24994C129.583 4.38536 126.875 4.63536 124.24 4.97911C123.974 5.0364 123.729 4.98952 123.505 4.88536ZM139.833 4.05202C139.333 3.82807 139.021 3.33327 139.031 2.77077C139.036 2.02598 139.698 1.42181 140.427 1.45306C143.203 1.53119 145.979 1.73431 148.687 2.02077C149.437 2.08848 149.99 2.78119 149.896 3.52077C149.807 4.25515 149.146 4.79681 148.401 4.72911C145.75 4.43744 143.047 4.27077 140.338 4.19265C140.167 4.17181 139.979 4.11973 139.833 4.05202ZM156.083 5.7864C155.51 5.52598 155.177 4.93223 155.286 4.29161C155.411 3.54161 156.135 3.06244 156.875 3.21348C159.557 3.69786 162.266 4.31765 164.969 5.02077C165.672 5.18744 166.13 5.95827 165.953 6.68744C165.75 7.40098 165.016 7.8489 164.286 7.67181C161.672 6.9739 159.036 6.39056 156.417 5.90619C156.281 5.87494 156.182 5.82806 156.083 5.7864ZM171.875 9.93744C171.224 9.64577 170.927 8.91661 171.141 8.23431C171.396 7.54161 172.172 7.14577 172.865 7.39577C173.901 7.73952 174.922 8.14057 175.974 8.52077C176.776 8.79161 177.021 9.58848 176.766 10.2812C176.505 10.9999 175.703 11.3281 175.005 11.0729C174.016 10.6874 173.01 10.3281 172.01 9.96869C171.948 9.9739 171.922 9.95827 171.875 9.93744Z" fill="black"/>
</g>
</g>
</g>
<mask id="mask3_2059_91" style="mask-type:luminance" maskUnits="userSpaceOnUse" x="172" y="0" width="32" height="27">
<path d="M172.667 0H203.333V26.6667H172.667V0Z" fill="white"/>
</mask>
<g mask="url(#mask3_2059_91)">
<mask id="mask4_2059_91" style="mask-type:luminance" maskUnits="userSpaceOnUse" x="-2" y="-52" width="212" height="223">
<path d="M69.7863 -52L209.307 10.5677L137.75 170.146L-1.771 107.583L69.7863 -52Z" fill="white"/>
</mask>
<g mask="url(#mask4_2059_91)">
<mask id="mask5_2059_91" style="mask-type:luminance" maskUnits="userSpaceOnUse" x="-2" y="-52" width="212" height="223">
<path d="M69.7863 -52L209.307 10.5677L137.75 170.146L-1.771 107.583L69.7863 -52Z" fill="white"/>
</mask>
<g mask="url(#mask5_2059_91)">
<path d="M186.614 0.447876L202.229 26.5104L173.854 23.4323L184.776 16.1406L186.614 0.447876Z" fill="black"/>
</g>
</g>
</g>
</svg>
