<svg width="58" height="80" viewBox="0 0 58 80" fill="none" xmlns="http://www.w3.org/2000/svg">
<mask id="mask0_2069_52" style="mask-type:luminance" maskUnits="userSpaceOnUse" x="0" y="0" width="58" height="80">
<path d="M0.333496 0H57.6668V79.7656H0.333496V0Z" fill="white"/>
</mask>
<g mask="url(#mask0_2069_52)">
<path d="M56.2451 45.8594C50.318 53.4323 47.6774 57.099 46.1045 54.2136C41.917 46.5157 61.5889 37.8282 39.9274 19.7032C43.3232 31.4271 39.8441 40.0157 39.3649 39.823C38.4587 39.4532 40.9899 11.8334 22.2034 0.036499C22.1826 3.19275 25.0889 19.8855 18.0732 15.8386C5.97948 20.8386 17.5524 53.1146 17.5524 53.1146C17.5524 53.1146 4.84407 51.0313 8.42219 35.8021C6.89615 37.1459 5.15136 38.323 3.51594 41.9219C-0.46843 50.6875 0.682611 61.0053 6.55761 68.6355C10.9482 74.3334 17.4847 78.2917 24.9587 79.3178C27.4691 79.6511 30.9378 79.474 32.6253 79.3178C46.292 77.4428 56.8284 65.7552 56.8284 51.573C56.8284 49.6146 56.6305 47.7032 56.2451 45.8594Z" fill="#FF3200"/>
</g>
<path d="M18.0416 2.11462C18.0416 2.11462 13.9582 2.36462 14.927 5.17191C15.8957 7.97921 18.7134 9.31775 16.578 11.3698C20.2655 10.1198 19.7759 8.13025 18.9478 7.31775C17.3228 5.72921 16.0676 2.55212 18.0416 2.11462Z" fill="#FF3200"/>
<path d="M6.77104 19.9375C6.77104 19.9375 2.68771 20.1823 3.65646 22.9948C4.62521 25.8021 7.43771 27.1406 5.30229 29.1927C8.98979 27.9427 8.50021 25.9479 7.67729 25.1406C6.05229 23.5521 4.79188 20.375 6.77104 19.9375Z" fill="#FF3200"/>
<path d="M45.0523 10.6823C45.0523 10.6823 40.969 10.927 41.9377 13.7343C42.9065 16.5468 45.719 17.8854 43.5835 19.9375C47.271 18.6823 46.7867 16.6927 45.9585 15.8854C44.3335 14.2968 43.0731 11.1198 45.0523 10.6823Z" fill="#FF3200"/>
<mask id="mask1_2069_52" style="mask-type:luminance" maskUnits="userSpaceOnUse" x="3" y="6" width="52" height="74">
<path d="M3 6.66663H55V79.7656H3V6.66663Z" fill="white"/>
</mask>
<g mask="url(#mask1_2069_52)">
<path d="M28.4013 79.5051C27.1669 79.5051 26.1148 79.4478 25.271 79.3385C18.5627 78.4166 12.5731 74.9426 8.41687 69.5468C3.10437 62.651 2.02104 53.4374 5.56271 45.4478C5.84917 47.776 6.60437 49.8593 7.82312 51.6822C11.2033 56.7551 16.9325 57.7447 17.1721 57.7812L21.1148 58.427L19.7658 54.6718C19.7398 54.5937 16.9169 46.6614 15.5887 38.276C14.7294 32.828 13.9898 23.6301 18.1304 20.8124C18.7762 21.052 19.3908 21.1666 20.0002 21.1666C21.2294 21.1666 22.3283 20.6822 23.1721 19.7603C25.271 17.4583 25.3283 12.7447 24.9429 7.427C35.5106 17.1562 36.37 33.2187 36.719 39.6718C36.8648 42.453 36.9325 43.7187 38.4794 44.3489L38.9065 44.5208L39.3856 44.526C39.844 44.526 40.719 44.3853 41.4169 43.4583C42.4325 42.1041 44.2971 36.5728 43.6044 28.901C46.1617 31.9062 47.5731 34.7551 47.8804 37.526C48.2815 41.0937 46.8179 44.1353 45.396 47.0833C43.7502 50.4999 42.0523 54.0312 44.0419 57.6874C45.0888 59.6093 46.5888 59.8958 47.3908 59.8958H47.396C49.5419 59.8958 51.3804 58.1093 54.4742 54.2655C54.396 60.3853 52.1356 66.2655 48.0888 70.8541C44.0158 75.4791 38.4325 78.4843 32.3544 79.3333C31.844 79.3801 30.2606 79.5051 28.4013 79.5051Z" fill="#FF8615"/>
</g>
<mask id="mask2_2069_52" style="mask-type:luminance" maskUnits="userSpaceOnUse" x="11" y="17" width="40" height="63">
<path d="M11 17.3334H51V79.7657H11V17.3334Z" fill="white"/>
</mask>
<g mask="url(#mask2_2069_52)">
<path d="M28.401 79.5053C27.125 79.5053 26.3333 79.4375 25.8958 79.3803C20.4271 78.6303 10.1718 65.4948 11.7083 60.1459C18.3958 65.8334 27.7968 63.4636 27.7968 63.4636C27.7968 63.4636 10.7396 37.5 28.9896 17.8334C28.9896 27.2969 25.4479 31.2917 32.875 47.4532C34.7864 51.6146 40.1093 49.4219 40.1093 49.4219C39.4479 51.3334 36.6875 63.6823 50.4531 62.4636C48.1614 71.8178 36.7343 78.6511 31.8177 79.3594C31.3021 79.4063 29.9531 79.5053 28.401 79.5053Z" fill="#FBDE57"/>
</g>
<mask id="mask3_2069_52" style="mask-type:luminance" maskUnits="userSpaceOnUse" x="16" y="56" width="31" height="24">
<path d="M16.3335 56H47.0002V79.7656H16.3335V56Z" fill="white"/>
</mask>
<g mask="url(#mask3_2069_52)">
<path d="M45.9115 68.5208C43.4688 69.7864 42.0938 71.875 38.1458 71.6093C34.5 71.3645 34.349 57.151 34.349 57.151C34.0781 57.2812 31.1042 67.1354 25.651 69.2031C22.0833 70.5573 16.6354 69.3489 16.6406 69.3698C18.4896 73.3541 24.5469 78.2864 26.2813 79.4427C28.5729 79.5937 31.2188 79.4479 32.625 79.3177C32.776 79.2968 32.9271 79.276 33.0781 79.25C35.4375 78.3593 42.9688 73.0468 45.9115 68.5208Z" fill="#FFEFB0"/>
</g>
</svg>
